#N canvas 0 22 1440 805 10;
#X obj 15 63 soundfiler;
#X obj 525 333 bng 15 250 50 0 empty empty empty 17 7 0 10 -262144
-1 -1;
#X obj 524 381 tabplay~ sample01;
#X obj 527 456 *~ 1;
#X obj 528 493 dac~;
#X floatatom 15 89 5 0 0 0 - - -;
#X msg 15 10 read ./samples/sample01.wav sample01;
#N canvas 0 0 450 300 (subpatch) 0;
#X array sample01 176400 float 2;
#X coords 0 1 176400 -1 200 140 1;
#X restore 12 127 graph;
#X msg 15 38 read -resize \$1 sample01;
#X obj 14 345 soundfiler;
#X floatatom 14 371 5 0 0 0 - - -;
#X msg 14 292 read ./samples/sample02.wav sample02;
#X msg 14 320 read -resize \$1 sample02;
#N canvas 0 0 450 300 (subpatch) 0;
#X array sample02 176400 float 2;
#X coords 0 1 176400 -1 200 140 1;
#X restore 14 410 graph;
#X obj 650 336 bng 15 250 50 0 empty empty empty 17 7 0 10 -262144
-1 -1;
#X obj 650 456 *~ 1;
#X obj 651 493 dac~;
#X obj 649 381 tabplay~ sample02;
#X obj 264 63 soundfiler;
#X floatatom 264 89 5 0 0 0 - - -;
#X msg 264 10 read ./samples/sample03.wav sample03;
#X msg 264 38 read -resize \$1 sample03;
#N canvas 0 0 450 300 (subpatch) 0;
#X array sample03 176400 float 2;
#X coords 0 1 176400 -1 200 140 1;
#X restore 264 130 graph;
#X obj 774 400 bng 15 250 50 0 empty empty empty 17 7 0 10 -262144
-1 -1;
#X obj 774 452 *~ 1;
#X obj 775 489 dac~;
#X obj 774 426 tabplay~ sample03;
#X obj 263 344 soundfiler;
#X floatatom 263 370 5 0 0 0 - - -;
#X msg 263 291 read ./samples/sample04.wav sample04;
#X msg 263 319 read -resize \$1 sample04;
#N canvas 0 0 450 300 (subpatch) 0;
#X array sample04 176400 float 2;
#X coords 0 1 176400 -1 200 140 1;
#X restore 262 413 graph;
#X obj 896 400 bng 15 250 50 0 empty empty empty 17 7 0 10 -262144
-1 -1;
#X obj 896 452 *~ 1;
#X obj 897 489 dac~;
#X obj 896 426 tabplay~ sample04;
#X obj 263 632 soundfiler;
#X floatatom 263 658 5 0 0 0 - - -;
#X msg 263 607 read -resize \$1 sample05;
#X msg 263 579 read ./samples/sample05.wav sample05;
#N canvas 0 0 450 300 (subpatch) 0;
#X array sample05 176354 float 2;
#X coords 0 1 176354 -1 200 140 1;
#X restore 17 580 graph;
#X obj 1022 400 bng 15 250 50 0 empty empty empty 17 7 0 10 -262144
-1 -1;
#X obj 1022 452 *~ 1;
#X obj 1023 489 dac~;
#X obj 1022 426 tabplay~ sample05;
#X obj 527 421 freeverb~;
#X msg 648 260 set 21 2 0;
#X obj 647 291 timebang 21 2 0;
#X connect 0 0 5 0;
#X connect 1 0 2 0;
#X connect 2 0 45 0;
#X connect 2 0 45 1;
#X connect 3 0 4 0;
#X connect 3 0 4 1;
#X connect 6 0 8 0;
#X connect 8 0 0 0;
#X connect 9 0 10 0;
#X connect 11 0 12 0;
#X connect 12 0 9 0;
#X connect 14 0 17 0;
#X connect 15 0 16 0;
#X connect 15 0 16 1;
#X connect 17 0 15 0;
#X connect 18 0 19 0;
#X connect 20 0 21 0;
#X connect 21 0 18 0;
#X connect 23 0 26 0;
#X connect 24 0 25 0;
#X connect 24 0 25 1;
#X connect 26 0 24 0;
#X connect 27 0 28 0;
#X connect 29 0 30 0;
#X connect 30 0 27 0;
#X connect 32 0 35 0;
#X connect 33 0 34 0;
#X connect 33 0 34 1;
#X connect 35 0 33 0;
#X connect 36 0 37 0;
#X connect 38 0 36 0;
#X connect 39 0 38 0;
#X connect 41 0 44 0;
#X connect 42 0 43 0;
#X connect 42 0 43 1;
#X connect 44 0 42 0;
#X connect 45 0 3 0;
#X connect 45 1 3 0;
#X connect 46 0 47 0;
#X connect 47 0 14 0;
